<?xml version="1.0" encoding="utf-8"?>
<!-- Generator: Adobe Illustrator 21.1.0, SVG Export Plug-In . SVG Version: 6.00 Build 0)  -->
<svg version="1.1" id="Layer_1" xmlns="http://www.w3.org/2000/svg" xmlns:xlink="http://www.w3.org/1999/xlink" x="0px" y="0px"
	 viewBox="0 0 191.9 40.4" style="enable-background:new 0 0 191.9 40.4;" xml:space="preserve">
<style type="text/css">
	.st0{fill:#FFFFFF;}
	.st1{fill:#F8E082;}
	.st2{font-family:'Futura-Medium';}
	.st3{font-size:5.6891px;}
	.st4{letter-spacing:5;}
</style>
<g>
	<path class="st0" d="M2,16.5h0.3c0.1,0.9,0.4,1.7,1.1,2.3c0.7,0.6,1.5,0.9,2.4,0.9c0.7,0,1.2-0.2,1.7-0.6C7.8,18.8,8,18.3,8,17.8
		c0-0.6-0.2-1-0.6-1.3c-0.4-0.3-1.2-0.7-2.4-1c-0.9-0.3-1.6-0.6-2-0.8c-0.5-0.2-0.8-0.6-1.1-1c-0.3-0.4-0.4-0.9-0.4-1.4
		c0-0.6,0.2-1.1,0.6-1.7C2,10.8,2,11.1,2,11.3c0,0.6,0.1,1.1,0.4,1.5c0.3,0.4,0.6,0.8,1,1c0.4,0.2,1.1,0.5,2,0.8
		c1.2,0.4,2.1,0.8,2.7,1.3c0.5,0.4,0.8,1,0.8,1.8c0,0.7-0.3,1.4-0.8,2c-0.6,0.6-1.4,0.9-2.5,0.9c-0.5,0-1.1-0.1-1.9-0.3
		c-0.7-0.1-1.2-0.2-1.6-0.2L2.1,20c0-0.1,0-0.3,0-0.5c0-0.2,0-0.6-0.1-1.1c0-0.5-0.1-0.9-0.1-1.1C1.9,17,2,16.8,2,16.5z M9.7,12H9.5
		c0-0.8-0.3-1.5-1-1.9C7.8,9.7,7,9.5,6.1,9.5c-0.7,0-1.3,0.2-1.8,0.5c-0.5,0.3-0.7,0.7-0.7,1.1c0,0.5,0.2,0.8,0.6,1.1
		c0.4,0.3,1.2,0.6,2.3,1c1.1,0.4,1.8,0.7,2.3,0.9c0.5,0.3,0.8,0.6,1.1,1.1c0.3,0.5,0.5,1,0.5,1.6c0,0.9-0.3,1.6-1,2.1
		c0.2-0.3,0.4-0.8,0.4-1.4c0-0.6-0.1-1.1-0.4-1.6c-0.3-0.5-0.6-0.8-1-1.1c-0.4-0.3-1.1-0.6-2.1-0.9c-1.4-0.5-2.4-0.9-2.8-1.2
		c-0.4-0.3-0.7-0.9-0.7-1.6c0-0.8,0.3-1.5,1-2c0.7-0.5,1.6-0.7,2.9-0.7c0.8,0,1.9,0.1,3.1,0.4v0.1l0,0.4c0,0.2,0,0.5,0,0.8
		c0,0.4,0,0.7,0,1C9.7,11.4,9.7,11.7,9.7,12z"/>
	<path class="st0" d="M14.2,8.8l5,10.6l-0.5,1l-4.5-9.6l-0.3,6.5c0,0.7,0,0.9,0,0.8c0,1.3,0.5,2,1.5,2.1v0.2c0,0-0.1,0-0.3,0
		c-0.8-0.1-1.4-0.1-1.6-0.1c-0.3,0-1,0-1.9,0.1v-0.2c0.9-0.2,1.4-1.2,1.5-2.8l0.3-7.5c-0.4-0.5-1-0.9-1.8-1.1V8.7
		c0.6,0.1,1.2,0.1,1.9,0.1L14.2,8.8z M19.6,16.4l3.5-7.6H24l0.5,11.5h-0.4c-0.3,0-0.7,0-1.2,0.1l-0.7,0.1v-0.2
		c0.9-0.2,1.3-1,1.3-2.4c0,0,0-0.2,0-0.7l-0.3-6.4l-3.5,7.7l-4.5-9.7H16L19.6,16.4z M25.3,20.3L24.8,8.8h0.4c0.5,0,1.3,0,2.2-0.1
		v0.2c-0.5,0.1-0.9,0.3-1.2,0.7c-0.3,0.4-0.4,0.8-0.4,1.4l0,1.2l0.2,5.2c0,1,0.2,1.7,0.4,2.1c0.3,0.5,0.7,0.7,1.2,0.8v0.2
		C26.6,20.4,25.8,20.3,25.3,20.3z"/>
	<path class="st0" d="M31.6,8.8v11.5c-0.5,0-1.3,0-2.4,0.1v-0.2c0.6-0.1,1-0.5,1.2-1c0.2-0.5,0.3-1.4,0.3-2.6v-4.9
		c0-0.9-0.1-1.6-0.3-2.1c-0.2-0.4-0.6-0.7-1.2-0.9V8.7C30.1,8.7,30.9,8.8,31.6,8.8z M32.4,20.3V8.8c0.9,0,1.7,0,2.4-0.1v0.2
		c-0.4,0.1-0.8,0.3-1.1,0.7c-0.3,0.4-0.4,1.2-0.4,2.5v5.2c0,1.1,0.2,1.9,0.5,2.3c0.3,0.4,0.7,0.6,1,0.7v0.2
		C34.2,20.4,33.4,20.3,32.4,20.3z"/>
	<path class="st0" d="M38.8,8.8h3.6v11.5h-0.3c-0.5,0-1.2,0-2.1,0.1v-0.2c0.6-0.2,1-0.5,1.2-0.9c0.2-0.5,0.3-1.2,0.3-2.3V9.6h-2.8
		c-0.7,0-1.2,0.1-1.5,0.4c-0.3,0.3-0.5,0.8-0.7,1.7h-0.3c0-0.1,0-0.2,0-0.3c0-0.1,0-0.3,0-0.6c0.1-0.8,0.1-1.5,0.1-2.1
		c0.4,0.1,0.9,0.1,1.4,0.1L38.8,8.8z M43.5,20.3h-0.3V8.8h3.9c0.7,0,1.4,0,2.1-0.1c0,0.1,0,0.4,0,0.8c0,0.3,0,0.8,0,1.3
		c0,0.3,0,0.6-0.1,1h-0.3c0-0.6-0.2-1.1-0.4-1.5c-0.3-0.4-0.9-0.6-1.8-0.6h-2.5v7.8c0,0.9,0.1,1.6,0.4,2c0.3,0.5,0.6,0.7,1.2,0.8
		v0.2C44.4,20.4,43.7,20.3,43.5,20.3z"/>
	<path class="st0" d="M52.7,8.8v11.5l-2.3,0.1v-0.2c0.4-0.1,0.6-0.3,0.9-0.6c0.2-0.3,0.4-0.6,0.5-1c0.1-0.4,0.1-1,0.1-1.9v-5
		c0-1.1-0.1-1.8-0.4-2.2c-0.3-0.4-0.6-0.6-1-0.7V8.7C50.9,8.7,51.6,8.8,52.7,8.8z M60.9,8.8v11.5c-0.3,0-1.1,0.1-2.4,0.1v-0.2
		c0.4-0.1,0.8-0.3,1.1-0.8c0.3-0.4,0.4-1.2,0.4-2.4v-2.3h-5.6v2.7c0,1,0.1,1.7,0.4,2.1c0.3,0.4,0.7,0.6,1.1,0.7v0.2
		c-0.9-0.1-1.7-0.1-2.4-0.1V8.8c0.6,0,1.4,0,2.4-0.1v0.2c-0.6,0.2-1,0.5-1.2,0.9c-0.2,0.4-0.3,1.2-0.3,2.3v1.8H60v-2.1
		c0-0.9-0.1-1.6-0.4-2.1C59.4,9.3,59,9,58.5,8.9V8.7C59.3,8.8,60.1,8.8,60.9,8.8z M61.7,20.3V8.8c0.8,0,1.6,0,2.4-0.1v0.2
		c-0.9,0.3-1.4,1.1-1.4,2.6l0,1v4.9c0,1.6,0.5,2.6,1.5,2.8v0.2C62.7,20.4,61.9,20.3,61.7,20.3z"/>
	<path class="st0" d="M72.2,15.2c-0.2,0.6-0.3,1.2-0.3,1.7c0,0.8,0.2,1.5,0.6,2.2c0.4,0.7,0.9,1.1,1.5,1.4c-0.9-0.1-1.6-0.4-2.2-0.9
		c-0.6-0.6-0.9-1.2-0.9-2C70.9,16.7,71.3,15.9,72.2,15.2z M79.2,19.2c-0.9,0.9-1.9,1.3-3,1.3c-1.1,0-1.9-0.4-2.6-1.2
		c-0.7-0.8-1-1.6-1-2.5c0-1.2,0.6-2.2,1.7-3c-0.7-1-1-1.7-1-2.3c0-0.4,0.1-0.8,0.3-1.3c0,0.5,0.2,1,0.5,1.6c0.2,0.3,0.4,0.7,0.7,1.1
		s0.7,1,1.3,1.6c0.2,0.2,0.5,0.6,0.9,1c0.4,0.4,0.8,0.9,1.2,1.3c0.4,0.4,0.6,0.7,0.8,0.9c0.9,0.9,1.6,1.5,2.2,1.9
		c0.6,0.4,1.2,0.7,1.8,0.8c-0.3,0.1-0.5,0.1-0.7,0.1c-0.7,0-1.2-0.1-1.6-0.3C80.1,20,79.7,19.6,79.2,19.2z M74.8,14.5
		c-0.8,0.6-1.2,1.4-1.2,2.2c0,0.7,0.3,1.3,0.8,2c0.5,0.6,1.2,0.9,2.1,0.9c0.7,0,1.4-0.3,2.1-1c-0.3-0.3-0.6-0.6-1-1.1
		c-0.4-0.4-0.8-0.9-1.2-1.3c-0.4-0.4-0.7-0.8-1-1.1C75,14.8,74.8,14.5,74.8,14.5z M84.7,19.1l0.1,0.2c-0.5,0.3-0.9,0.5-1.3,0.5
		c-0.5,0-1.2-0.3-1.9-0.8c-0.4-0.3-0.8-0.7-1.4-1.2c-0.5-0.5-1.2-1.2-2-2.1c-1.5-1.6-2.5-2.8-3.1-3.6c-0.5-0.7-0.8-1.4-0.8-1.8
		c0-0.5,0.2-0.9,0.6-1.3c0.4-0.4,1-0.5,1.7-0.5c0.7,0,1.3,0.2,1.8,0.6c0.5,0.4,0.7,0.9,0.7,1.5c0,1-0.7,1.9-2.2,2.7
		c0.7,0.8,1.7,2,3.2,3.5c0.7-0.9,1.1-1.5,1.1-1.9c0-0.5-0.4-0.9-1.3-1v-0.2c1.2,0.1,2,0.2,2.5,0.2c0.1,0,0.4,0,0.7,0
		c0.4,0,0.8,0,1.1,0V14c-0.6,0-1.4,0.6-2.2,1.6l-0.7,0.9c0,0-0.1,0.1-0.1,0.1l-0.5,0.7c1.3,1.3,2.3,1.9,3.1,1.9
		C84.2,19.3,84.5,19.2,84.7,19.1z M76.3,12.4l0.2,0.3c0.9-0.5,1.4-1.1,1.4-1.9c0-0.4-0.1-0.8-0.4-1c-0.2-0.2-0.6-0.4-1-0.4
		c-0.5,0-0.8,0.1-1,0.3c-0.2,0.2-0.3,0.5-0.3,0.7C75.2,10.8,75.6,11.5,76.3,12.4z"/>
	<path class="st0" d="M92.8,8.8l4.8,10.9l-0.4,0.8h-0.2L93,11.3c-0.6-1.4-1.4-2.2-2.2-2.4V8.7C91.2,8.7,91.9,8.8,92.8,8.8z M99,8.8
		l4.6,10.9l-0.3,0.9H103l-2.8-6.7l-2.1,4.8l-4.4-9.9c0,0,0.4,0,1.1,0l0.5,0L96,8.7v0.2c-0.5,0.2-0.7,0.5-0.7,0.9s0.2,1,0.5,1.8
		l2.2,5.1l1.7-3.8l-0.7-1.6c-0.3-0.7-0.6-1.3-0.9-1.6c-0.3-0.3-0.7-0.6-1.2-0.7V8.7C97.7,8.7,98.4,8.8,99,8.8z M102,11.6l2,4.9
		l1.7-4.2c0.4-0.9,0.6-1.7,0.6-2.2c0-0.7-0.3-1.1-1-1.3V8.7c0.8,0.1,1.4,0.1,1.8,0.1c0.7,0,1.3,0,1.9-0.1v0.2
		c-0.5,0.3-0.9,0.6-1.2,1c-0.3,0.4-0.7,1.2-1.2,2.3l-2.6,6.4l-4.1-9.9c0.9,0,1.7-0.1,2.3-0.1v0.2c-0.5,0.2-0.7,0.5-0.7,0.9
		C101.5,10.2,101.6,10.8,102,11.6z"/>
	<path class="st0" d="M112.8,8.8v11.5c-0.5,0-1.3,0-2.4,0.1v-0.2c0.6-0.1,1-0.5,1.2-1c0.2-0.5,0.3-1.4,0.3-2.6v-4.9
		c0-0.9-0.1-1.6-0.3-2.1c-0.2-0.4-0.6-0.7-1.2-0.9V8.7C111.3,8.7,112.1,8.8,112.8,8.8z M113.6,20.3V8.8c0.9,0,1.7,0,2.4-0.1v0.2
		c-0.4,0.1-0.8,0.3-1.1,0.7c-0.3,0.4-0.4,1.2-0.4,2.5v5.2c0,1.1,0.2,1.9,0.5,2.3c0.3,0.4,0.7,0.6,1,0.7v0.2
		C115.3,20.4,114.5,20.3,113.6,20.3z"/>
	<path class="st0" d="M117.8,8.7l2.3,0.1v11.5h-0.7c-0.4,0-1,0-1.6,0.1v-0.2c0.5-0.2,0.9-0.6,1.1-1c0.2-0.5,0.3-1.2,0.3-2.3v-5.2
		c0-1.1-0.1-1.9-0.4-2.2c-0.3-0.4-0.6-0.6-1-0.7V8.7z M126,20.3h-5.1V8.8c0.5,0,1,0,1.7-0.1c0.6,0,0.8,0,0.8,0v0.2
		c-0.6,0.1-1,0.4-1.2,0.9c-0.2,0.4-0.3,1.1-0.3,2v4.8c0,0.7,0,1.4,0.1,1.9c0.1,0.6,0.1,0.9,0.2,1c0.1,0.1,0.3,0.1,0.6,0.1h2.3
		c0.8,0,1.5-0.1,2-0.4c0.5-0.3,1-0.8,1.4-1.5h0.2c-0.1,0.3-0.2,0.9-0.5,1.7c-0.2,0.5-0.3,0.9-0.3,1.2
		C127.3,20.4,126.7,20.3,126,20.3z"/>
	<path class="st0" d="M129.7,8.7l2.3,0.1v11.5h-0.7c-0.4,0-1,0-1.6,0.1v-0.2c0.5-0.2,0.9-0.6,1.1-1c0.2-0.5,0.3-1.2,0.3-2.3v-5.2
		c0-1.1-0.1-1.9-0.4-2.2c-0.3-0.4-0.6-0.6-1-0.7V8.7z M137.9,20.3h-5.1V8.8c0.5,0,1,0,1.7-0.1c0.6,0,0.8,0,0.8,0v0.2
		c-0.6,0.1-1,0.4-1.2,0.9c-0.2,0.4-0.3,1.1-0.3,2v4.8c0,0.7,0,1.4,0.1,1.9c0.1,0.6,0.1,0.9,0.2,1c0.1,0.1,0.3,0.1,0.6,0.1h2.3
		c0.8,0,1.5-0.1,2-0.4c0.5-0.3,1-0.8,1.4-1.5h0.2c-0.1,0.3-0.2,0.9-0.5,1.7c-0.2,0.5-0.3,0.9-0.3,1.2
		C139.2,20.4,138.6,20.3,137.9,20.3z"/>
	<path class="st0" d="M144.3,8.8v11.5c-0.5,0-1.3,0-2.4,0.1v-0.2c0.6-0.1,1-0.5,1.2-1c0.2-0.5,0.3-1.4,0.3-2.6v-4.9
		c0-0.9-0.1-1.6-0.3-2.1c-0.2-0.4-0.6-0.7-1.2-0.9V8.7C142.8,8.7,143.6,8.8,144.3,8.8z M145.1,20.3V8.8c0.9,0,1.7,0,2.4-0.1v0.2
		c-0.4,0.1-0.8,0.3-1.1,0.7c-0.3,0.4-0.4,1.2-0.4,2.5v5.2c0,1.1,0.2,1.9,0.5,2.3c0.3,0.4,0.7,0.6,1,0.7v0.2
		C146.8,20.4,146,20.3,145.1,20.3z"/>
	<path class="st0" d="M158.1,17.7l-1-2H153l-1,2l-0.1,0.1c0,0-0.1,0.1-0.2,0.3c-0.2,0.3-0.2,0.6-0.2,0.9c0,0.6,0.3,0.9,0.9,1.2v0.2
		c-0.1,0-0.3,0-0.6-0.1c-0.4-0.1-0.8-0.1-1.2-0.1c-0.3,0-0.7,0-1.2,0.1c-0.3,0-0.5,0.1-0.6,0.1v-0.2c0.8-0.4,1.5-1.2,2.2-2.5
		l3.6-7.1c-0.3-0.6-0.7-1-1.1-1.3c-0.5-0.3-1.1-0.5-1.7-0.5V8.7h0.4c0.3,0,0.8,0,1.4,0.1c0.6,0,1,0.1,1.2,0.1l5.5,11.5
		c-0.7,0-1.6,0.1-2.5,0.1v-0.2c0.6-0.1,0.8-0.4,0.8-0.9C158.7,19,158.5,18.4,158.1,17.7z M153.5,14.8h3.3l-1.6-3.3L153.5,14.8z
		 M161.3,20.3l-5.5-11.5h1.1c0.1,0.4,0.3,0.9,0.6,1.4c0.3,0.6,0.5,1,0.5,1.1c0,0.1,0.1,0.1,0.1,0.2l2.6,5.3c0.9,1.9,1.9,3,2.9,3.4
		v0.2C162.5,20.4,161.7,20.3,161.3,20.3z"/>
	<path class="st0" d="M167,8.8l5,10.6l-0.5,1l-4.5-9.6l-0.3,6.5c0,0.7,0,0.9,0,0.8c0,1.3,0.5,2,1.5,2.1v0.2c0,0-0.1,0-0.3,0
		c-0.8-0.1-1.4-0.1-1.6-0.1c-0.4,0-1,0-1.9,0.1v-0.2c0.9-0.2,1.4-1.2,1.5-2.8l0.3-7.5c-0.4-0.5-1-0.9-1.8-1.1V8.7
		c0.6,0.1,1.2,0.1,1.9,0.1L167,8.8z M172.4,16.4l3.5-7.6h0.8l0.5,11.5h-0.4c-0.3,0-0.7,0-1.2,0.1l-0.7,0.1v-0.2
		c0.9-0.2,1.3-1,1.3-2.4c0,0,0-0.2,0-0.7l-0.3-6.4l-3.5,7.7l-4.5-9.7h0.9L172.4,16.4z M178.1,20.3l-0.5-11.5h0.4
		c0.5,0,1.3,0,2.2-0.1v0.2c-0.5,0.1-0.9,0.3-1.2,0.7c-0.3,0.4-0.4,0.8-0.4,1.4l0,1.2l0.2,5.2c0,1,0.2,1.7,0.4,2.1
		c0.3,0.5,0.7,0.7,1.2,0.8v0.2C179.4,20.4,178.6,20.3,178.1,20.3z"/>
	<path class="st0" d="M182.1,16.5h0.3c0.1,0.9,0.4,1.7,1.1,2.3c0.7,0.6,1.5,0.9,2.4,0.9c0.7,0,1.2-0.2,1.7-0.6
		c0.4-0.4,0.6-0.8,0.6-1.4c0-0.6-0.2-1-0.6-1.3c-0.4-0.3-1.2-0.7-2.4-1c-0.9-0.3-1.6-0.6-2-0.8c-0.5-0.2-0.8-0.6-1.1-1
		c-0.3-0.4-0.4-0.9-0.4-1.4c0-0.6,0.2-1.1,0.6-1.7c-0.1,0.3-0.1,0.5-0.1,0.7c0,0.6,0.1,1.1,0.4,1.5c0.3,0.4,0.6,0.8,1,1
		c0.4,0.2,1.1,0.5,2,0.8c1.2,0.4,2.1,0.8,2.7,1.3c0.5,0.4,0.8,1,0.8,1.8c0,0.7-0.3,1.4-0.8,2c-0.6,0.6-1.4,0.9-2.5,0.9
		c-0.5,0-1.1-0.1-1.9-0.3c-0.7-0.1-1.2-0.2-1.6-0.2l-0.1-0.1c0-0.1,0-0.3,0-0.5c0-0.2,0-0.6-0.1-1.1c0-0.5-0.1-0.9-0.1-1.1
		C182,17,182,16.8,182.1,16.5z M189.8,12h-0.2c0-0.8-0.3-1.5-1-1.9c-0.6-0.4-1.4-0.6-2.4-0.6c-0.7,0-1.3,0.2-1.8,0.5
		c-0.5,0.3-0.7,0.7-0.7,1.1c0,0.5,0.2,0.8,0.6,1.1c0.4,0.3,1.2,0.6,2.3,1c1.1,0.4,1.8,0.7,2.3,0.9c0.5,0.3,0.8,0.6,1.1,1.1
		c0.3,0.5,0.5,1,0.5,1.6c0,0.9-0.3,1.6-1,2.1c0.2-0.3,0.4-0.8,0.4-1.4c0-0.6-0.1-1.1-0.4-1.6c-0.3-0.5-0.6-0.8-1-1.1
		c-0.4-0.3-1.1-0.6-2.1-0.9c-1.4-0.5-2.4-0.9-2.8-1.2c-0.4-0.3-0.7-0.9-0.7-1.6c0-0.8,0.3-1.5,1-2c0.7-0.5,1.6-0.7,2.9-0.7
		c0.8,0,1.9,0.1,3.1,0.4v0.1l0,0.4c0,0.2,0,0.5,0,0.8c0,0.4,0,0.7,0,1C189.8,11.4,189.8,11.7,189.8,12z"/>
</g>
<text transform="matrix(1 0 0 1 94.099 35.4529)" class="st1 st2 st3 st4">B</text>
<text transform="matrix(1 0 0 1 77.7435 35.4528)" class="st1 st2 st3 st4">E</text>
<text transform="matrix(1 0 0 1 67.8906 35.4529)" class="st1 st2 st3 st4">H</text>
<text transform="matrix(1 0 0 1 59.4571 35.4531)" class="st1 st2 st3 st4">T</text>
<text transform="matrix(1 0 0 1 103.1442 35.4532)" class="st1 st2 st3 st4">L</text>
<text transform="matrix(1 0 0 1 111.1921 35.4532)" class="st1 st2 st3 st4">O</text>
<text transform="matrix(1 0 0 1 121.9649 35.4535)" class="st1 st2 st3 st4">G</text>
</svg>
